<?xml version="1.0" standalone="no"?>
<!DOCTYPE svg PUBLIC "-//W3C//DTD SVG 20010904//EN"
 "http://www.w3.org/TR/2001/REC-SVG-20010904/DTD/svg10.dtd">
<svg version="1.0" xmlns="http://www.w3.org/2000/svg"
 width="512.000000pt" height="512.000000pt" viewBox="0 0 512.000000 512.000000"
 preserveAspectRatio="xMidYMid meet">
<metadata>
Created by potrace 1.14, written by Peter Selinger 2001-2017
</metadata>
<g transform="translate(0.000000,512.000000) scale(0.100000,-0.100000)"
fill="#000000" stroke="none">
<path d="M371 5094 c-169 -45 -301 -180 -346 -351 -23 -87 -23 -2750 0 -2838
45 -172 179 -305 352 -350 87 -23 4279 -23 4366 0 173 45 307 178 352 350 13
52 15 230 15 1420 0 1190 -2 1368 -15 1420 -45 172 -179 305 -352 350 -85 22
-4289 21 -4372 -1z m4391 -177 c93 -46 178 -160 178 -239 0 -17 -84 -18 -2380
-18 -2296 0 -2380 1 -2380 18 0 68 72 177 147 223 79 49 3 48 2258 46 l2120
-2 57 -28z m-1972 -677 c332 -85 589 -339 682 -675 26 -91 35 -289 19 -391
-34 -208 -133 -389 -295 -541 -364 -340 -927 -333 -1289 16 -148 142 -246 327
-278 525 -15 95 -7 299 15 380 25 88 64 183 110 260 50 84 178 222 262 282
113 81 271 143 429 168 69 11 262 -3 345 -24z"/>
<path d="M2295 3845 l-25 -24 0 -496 0 -496 25 -24 c14 -15 36 -25 53 -25 21
0 138 69 408 241 208 133 384 249 391 258 16 21 16 73 1 93 -7 9 -184 125
-392 257 -267 169 -388 241 -408 241 -17 0 -39 -10 -53 -25z m285 -299 l115
-76 -132 0 -133 0 0 85 c0 79 1 85 18 76 9 -5 69 -44 132 -85z"/>
<path d="M1127 929 c-163 -33 -311 -167 -354 -321 l-16 -58 -349 0 -349 0 -24
-25 c-27 -26 -32 -70 -12 -96 28 -37 49 -39 395 -39 l339 0 13 -42 c71 -239
319 -384 553 -323 159 41 290 164 333 312 l15 53 1690 0 1691 0 29 29 c36 36
37 73 4 106 l-24 25 -1694 0 -1693 0 -19 62 c-64 216 -308 362 -528 317z m198
-176 c66 -21 145 -100 168 -167 23 -67 22 -170 -3 -223 l-19 -43 -128 1 c-70
1 -118 4 -107 6 48 9 59 38 59 145 0 97 -1 100 -28 124 -38 32 -72 31 -108 -5
-28 -28 -29 -33 -29 -119 0 -97 17 -136 63 -145 12 -2 -35 -5 -105 -6 l-127
-1 -16 30 c-72 139 -1 337 143 397 81 34 143 35 237 6z"/>
</g>
</svg>
